<svg xmlns="http://www.w3.org/2000/svg" fill="none" viewBox="0 0 66 24" class="design-iconfont" width="128" height="46.54545454545455">
  <path d="M0 0.00378418H3.62774V5.79661H9.23786V0.00378418H12.8656V14.1528H9.23786V8.70312H3.62774V14.1528H0V0.00378418Z" fill="#670099"></path>
  <path d="M22.4389 7.6285C22.4521 7.18445 22.3729 6.80768 22.201 6.49819C22.0425 6.17525 21.8112 5.92631 21.5072 5.75138C21.2033 5.57645 20.853 5.48899 20.4566 5.48899C19.994 5.48899 19.5975 5.61682 19.2671 5.87249C18.95 6.11469 18.6989 6.45782 18.5138 6.90187C18.342 7.33247 18.2561 7.83707 18.2561 8.41568C18.2561 9.04811 18.3619 9.59308 18.5733 10.0506C18.7848 10.5081 19.0821 10.8647 19.4654 11.1203C19.8618 11.3626 20.3178 11.4837 20.8332 11.4837C21.7847 11.4837 22.624 11.1136 23.3508 10.3735L25.1944 12.2305C24.6526 12.836 23.9852 13.307 23.1922 13.6434C22.4125 13.9798 21.5204 14.148 20.516 14.148C19.353 14.148 18.342 13.9192 17.483 13.4617C16.6372 13.0042 15.983 12.3583 15.5204 11.524C15.0711 10.6898 14.8464 9.72092 14.8464 8.61752C14.8464 7.48721 15.0777 6.50492 15.5403 5.67064C16.0028 4.82291 16.657 4.1703 17.5028 3.71279C18.3486 3.24183 19.3266 3.00635 20.4367 3.00635C21.6922 3.00635 22.7297 3.27547 23.5491 3.81371C24.3817 4.3385 24.9896 5.09204 25.3728 6.07433C25.7693 7.05662 25.9279 8.20711 25.8486 9.5258H17.7605V7.6285H22.4389Z" fill="#670099"></path>
  <path d="M46.0487 3.01267C47.0531 3.01267 47.9254 3.24815 48.6655 3.71911C49.4188 4.17662 50.0003 4.82924 50.41 5.67697C50.8329 6.51124 51.0443 7.50026 51.0443 8.64403C51.0443 9.73397 50.8395 10.6961 50.4298 11.5303C50.0333 12.3646 49.465 13.0105 48.7249 13.468C47.9981 13.9255 47.1324 14.1543 46.128 14.1543C45.2294 14.1543 44.4496 13.9323 43.7888 13.4882C43.1413 13.0307 42.6391 12.3915 42.2822 11.5707C41.9386 10.7364 41.7668 9.75415 41.7668 8.62384C41.7668 7.46662 41.9386 6.47088 42.2822 5.6366C42.6258 4.78887 43.1148 4.14298 43.7492 3.69893C44.3968 3.24143 45.1633 3.01267 46.0487 3.01267ZM45.1765 5.77789C44.7404 5.77789 44.3439 5.899 43.9871 6.1412C43.6435 6.36996 43.3725 6.6929 43.1743 7.11004C42.9893 7.51372 42.8968 7.99141 42.8968 8.54311C42.8968 9.08135 42.9893 9.56577 43.1743 9.99636C43.3725 10.4135 43.6435 10.7364 43.9871 10.9652C44.3439 11.1939 44.7404 11.3083 45.1765 11.3083C45.6391 11.3083 46.0421 11.1939 46.3858 10.9652C46.7426 10.723 47.0135 10.3933 47.1985 9.97618C47.3968 9.55904 47.4959 9.08135 47.4959 8.54311C47.4959 8.00487 47.3968 7.52718 47.1985 7.11004C47.0135 6.6929 46.7426 6.36996 46.3858 6.1412C46.0421 5.899 45.6391 5.77789 45.1765 5.77789ZM39.3681 0.0681152H42.8968V14.0332H39.3681V0.0681152Z" fill="#670099"></path>
  <path d="M61.9931 10.1158C61.9931 10.5329 62.079 10.8357 62.2509 11.0241C62.4227 11.2125 62.6605 11.2999 62.9645 11.2865C63.1495 11.2865 63.3544 11.2528 63.579 11.1855C63.8037 11.1183 64.0416 11.0308 64.2927 10.9232L64.9667 13.4058C64.5834 13.648 64.1341 13.8364 63.6187 13.971C63.1165 14.0921 62.6011 14.1526 62.0724 14.1526C61.3852 14.1526 60.7707 14.0248 60.2288 13.7691C59.687 13.5 59.2575 13.1098 58.9403 12.5984C58.6363 12.0736 58.4843 11.4345 58.4843 10.6809V0H61.9931V10.1158ZM56.9976 3.59633H64.7685V5.93768H56.9976V3.59633Z" fill="#670099"></path>
  <path d="M26.1649 3.00635H30.2089L31.9336 6.09451L33.797 3.00635H37.6627L34.2728 8.31476L37.9005 13.9057H33.8367L31.9336 10.5552L29.8125 13.9057H25.927L29.5746 8.31476L26.1649 3.00635Z" fill="#670099"></path>
  <path fill-rule="evenodd" clip-rule="evenodd" d="M56.0141 1.11592V0.0681152H52.5053V3.47162L56.0141 1.11592ZM52.5053 6.23614V14.3205H56.0141V3.88045L52.5053 6.23614Z" fill="#670099"></path>
  <path d="M62.9415 22.3421C62.9415 22.3469 62.9391 22.3517 62.9344 22.3565C62.9344 22.3565 62.932 22.3565 62.9273 22.3565H62.1987C62.194 22.3565 62.1893 22.3565 62.1846 22.3565C62.1846 22.3517 62.1846 22.3469 62.1846 22.3421V18.5536C62.1846 18.5488 62.1846 18.5464 62.1846 18.5464C62.1893 18.5416 62.194 18.5392 62.1987 18.5392H62.9273C62.932 18.5392 62.9344 18.5416 62.9344 18.5464C62.9391 18.5464 62.9415 18.5488 62.9415 18.5536V22.3421ZM62.1846 21.0096C62.1846 20.5631 62.2671 20.1429 62.4322 19.7492C62.5972 19.3555 62.8259 19.0434 63.1183 18.8129C63.4154 18.5776 63.7479 18.46 64.1157 18.46C64.3562 18.46 64.5826 18.532 64.7948 18.676C65.0118 18.8153 65.1863 19.017 65.3183 19.281C65.4503 19.5403 65.5164 19.838 65.5164 20.1741V22.3421C65.5164 22.3469 65.514 22.3517 65.5093 22.3565C65.5093 22.3565 65.5069 22.3565 65.5022 22.3565H64.7665C64.7618 22.3565 64.7571 22.3565 64.7524 22.3565C64.7524 22.3517 64.7524 22.3469 64.7524 22.3421V20.1741C64.7524 19.9677 64.7123 19.7924 64.6321 19.6484C64.552 19.5043 64.4482 19.3963 64.3209 19.3243C64.1936 19.2474 64.0615 19.209 63.9247 19.209C63.7314 19.209 63.5616 19.2546 63.4154 19.3459C63.2692 19.4323 63.1537 19.5715 63.0688 19.7636C62.9839 19.9557 62.9415 20.1982 62.9415 20.4911L62.1846 21.0096Z" fill="#670099"></path>
  <path d="M59.4908 21.7227C59.7218 21.7227 59.927 21.6699 60.1062 21.5642C60.2854 21.4538 60.4222 21.3025 60.5165 21.1105C60.6155 20.9136 60.665 20.6927 60.665 20.4478C60.665 20.1982 60.6155 19.9773 60.5165 19.7852C60.4222 19.5931 60.2854 19.4443 60.1062 19.3387C59.927 19.2282 59.7218 19.173 59.4908 19.173C59.2597 19.173 59.0545 19.2282 58.8753 19.3387C58.6961 19.4443 58.557 19.5931 58.458 19.7852C58.3637 19.9773 58.3165 20.1982 58.3165 20.4478C58.3165 20.6927 58.366 20.9136 58.465 21.1105C58.5641 21.3025 58.7008 21.4538 58.8753 21.5642C59.0545 21.6699 59.2597 21.7227 59.4908 21.7227ZM59.4908 22.4357C59.1371 22.4357 58.8093 22.3469 58.5075 22.1692C58.2104 21.9868 57.9746 21.7443 57.8001 21.4418C57.6256 21.1345 57.5384 20.8032 57.5384 20.4478C57.5384 20.0877 57.6256 19.7564 57.8001 19.4539C57.9793 19.1466 58.2175 18.9041 58.5146 18.7265C58.8164 18.5488 59.1418 18.46 59.4908 18.46C59.8445 18.46 60.1699 18.5488 60.467 18.7265C60.7688 18.9041 61.0069 19.1466 61.1814 19.4539C61.3559 19.7564 61.4431 20.0877 61.4431 20.4478C61.4431 20.8032 61.3559 21.1345 61.1814 21.4418C61.0069 21.7443 60.7688 21.9868 60.467 22.1692C60.1699 22.3469 59.8445 22.4357 59.4908 22.4357Z" fill="#670099"></path>
  <path d="M51.9517 22.3421C51.9517 22.3469 51.9493 22.3517 51.9446 22.3565C51.9446 22.3565 51.9423 22.3565 51.9375 22.3565H51.2089C51.2042 22.3565 51.1995 22.3565 51.1948 22.3565C51.1948 22.3517 51.1948 22.3469 51.1948 22.3421V18.5536C51.1948 18.5488 51.1948 18.5464 51.1948 18.5464C51.1995 18.5416 51.2042 18.5392 51.2089 18.5392H51.9375C51.9423 18.5392 51.9446 18.5416 51.9446 18.5464C51.9493 18.5464 51.9517 18.5488 51.9517 18.5536V22.3421ZM51.1948 21.0096C51.1948 20.5631 51.275 20.1429 51.4353 19.7492C51.5956 19.3555 51.8196 19.0434 52.1073 18.8129C52.3997 18.5776 52.7298 18.46 53.0977 18.46C53.3335 18.46 53.548 18.5296 53.7414 18.6688C53.9347 18.8081 54.088 19.0073 54.2012 19.2666C54.3144 19.5259 54.371 19.8284 54.371 20.1741V22.3421C54.371 22.3469 54.3686 22.3517 54.3639 22.3565C54.3639 22.3565 54.3615 22.3565 54.3568 22.3565H53.6282C53.6235 22.3565 53.6188 22.3565 53.6141 22.3565C53.6141 22.3517 53.6141 22.3469 53.6141 22.3421V20.1741C53.6141 19.9629 53.581 19.7852 53.515 19.6412C53.4537 19.4923 53.3688 19.3843 53.2604 19.3171C53.1566 19.245 53.0387 19.209 52.9067 19.209C52.7133 19.209 52.5459 19.2546 52.4044 19.3459C52.2629 19.4323 52.1521 19.5715 52.0719 19.7636C51.9918 19.9557 51.9517 20.1982 51.9517 20.4911L51.1948 21.0096ZM53.6141 21.0168C53.6141 20.5655 53.6942 20.1453 53.8546 19.7564C54.0149 19.3627 54.2413 19.0482 54.5337 18.8129C54.826 18.5776 55.1562 18.46 55.524 18.46C55.7551 18.46 55.9673 18.5296 56.1606 18.6688C56.354 18.8033 56.5073 19.0001 56.6204 19.2594C56.7383 19.5139 56.7973 19.814 56.7973 20.1597V22.3421C56.7973 22.3469 56.7949 22.3517 56.7902 22.3565C56.7902 22.3565 56.7879 22.3565 56.7831 22.3565H56.0475C56.0427 22.3565 56.038 22.3565 56.0333 22.3565C56.0333 22.3517 56.0333 22.3469 56.0333 22.3421V20.1597C56.0333 19.9437 56.0003 19.766 55.9343 19.6268C55.873 19.4827 55.7881 19.3771 55.6796 19.3099C55.5759 19.2426 55.4603 19.209 55.333 19.209C55.1349 19.209 54.9652 19.2546 54.8237 19.3459C54.6822 19.4323 54.5714 19.5715 54.4912 19.7636C54.411 19.9557 54.371 20.2006 54.371 20.4983L53.6141 21.0168Z" fill="#670099"></path>
  <path d="M50.4387 20.6351C50.4387 20.6399 50.4364 20.6447 50.4316 20.6495C50.4316 20.6495 50.4293 20.6495 50.4246 20.6495H49.7384C49.7384 20.3086 49.6865 20.0277 49.5828 19.8068C49.4838 19.5811 49.347 19.4179 49.1725 19.3171C49.0027 19.2114 48.8047 19.1586 48.5783 19.1586C48.3142 19.1586 48.0902 19.209 47.9063 19.3099C47.7224 19.4107 47.5809 19.5571 47.4818 19.7492C47.3875 19.9413 47.3404 20.1717 47.3404 20.4406C47.3404 20.7143 47.3875 20.9496 47.4818 21.1465C47.5809 21.3385 47.7271 21.485 47.9204 21.5858C48.1138 21.6867 48.3519 21.7371 48.6349 21.7371C48.8518 21.7371 49.0522 21.6795 49.2362 21.5642C49.4248 21.449 49.5851 21.2881 49.7172 21.0817C49.7219 21.0769 49.7243 21.0745 49.7243 21.0745C49.729 21.0745 49.7337 21.0745 49.7384 21.0745L50.3185 21.4706C50.3232 21.4754 50.3255 21.4802 50.3255 21.485C50.3303 21.485 50.3303 21.4874 50.3255 21.4922C50.1369 21.7851 49.8893 22.0156 49.5828 22.1836C49.281 22.3517 48.965 22.4357 48.6349 22.4357C48.2293 22.4357 47.8733 22.3493 47.5667 22.1764C47.2649 22.0036 47.0291 21.7659 46.8593 21.4634C46.6943 21.1609 46.6118 20.82 46.6118 20.4406C46.6118 20.0613 46.6943 19.7228 46.8593 19.4251C47.0291 19.1226 47.2626 18.8873 47.5597 18.7192C47.8615 18.5464 48.201 18.46 48.5783 18.46C48.9131 18.46 49.222 18.5416 49.505 18.7048C49.7926 18.8681 50.0214 19.113 50.1911 19.4395C50.3656 19.766 50.4482 20.1645 50.4387 20.6351ZM50.0709 20.6495H47.0999V20.0157H50.0709V20.6495Z" fill="#670099"></path>
  <path d="M43.3495 22.3542C43.3448 22.3542 43.3401 22.3542 43.3354 22.3542C43.3354 22.3494 43.3354 22.3446 43.3354 22.3398V17.0316C43.3354 17.0268 43.3354 17.0244 43.3354 17.0244C43.3401 17.0196 43.3448 17.0172 43.3495 17.0172H44.1135C44.1182 17.0172 44.1206 17.0196 44.1206 17.0244C44.1253 17.0244 44.1276 17.0268 44.1276 17.0316V22.3542H43.3495ZM46.4408 21.5692C46.4455 21.5692 46.4479 21.5716 46.4479 21.5764C46.4526 21.5764 46.4549 21.5788 46.4549 21.5836V22.3398C46.4549 22.3446 46.4526 22.3494 46.4479 22.3542C46.4479 22.3542 46.4455 22.3542 46.4408 22.3542H43.8376V21.5692H46.4408Z" fill="#670099"></path>
  <path d="M38.097 22.257L36.4984 18.5549C36.4984 18.5501 36.4984 18.5477 36.4984 18.5477C36.5031 18.5429 36.5078 18.5405 36.5125 18.5405H37.3048C37.3189 18.5405 37.326 18.5453 37.326 18.5549L38.7974 22.1418L38.097 22.257ZM38.0405 23.9856C38.0405 23.9904 38.0381 23.9928 38.0334 23.9928C38.0287 23.9976 38.024 24 38.0192 24H37.227C37.2222 24 37.2175 23.9976 37.2128 23.9928C37.2128 23.9928 37.2128 23.9904 37.2128 23.9856L39.5401 18.5549C39.5401 18.5453 39.5472 18.5405 39.5613 18.5405H40.3536C40.3583 18.5405 40.3607 18.5429 40.3607 18.5477C40.3654 18.5477 40.3678 18.5501 40.3678 18.5549L38.0405 23.9856Z" fill="#670099"></path>
  <path d="M34.2981 21.7368C34.5056 21.7368 34.6943 21.6816 34.864 21.5711C35.0338 21.4607 35.1659 21.3094 35.2602 21.1174C35.3592 20.9205 35.4087 20.6972 35.4087 20.4475C35.4087 20.1979 35.3592 19.9746 35.2602 19.7777C35.1659 19.5808 35.0315 19.4272 34.857 19.3168C34.6872 19.2063 34.5009 19.1511 34.2981 19.1511C34.0576 19.1511 33.8454 19.2063 33.6615 19.3168C33.4776 19.4224 33.3337 19.576 33.23 19.7777C33.1309 19.9746 33.0814 20.1979 33.0814 20.4475C33.0814 20.6972 33.1309 20.9205 33.23 21.1174C33.3337 21.3142 33.4776 21.4679 33.6615 21.5783C33.8454 21.684 34.0576 21.7368 34.2981 21.7368ZM34.3547 22.4354C34.0058 22.4354 33.7039 22.337 33.4493 22.1401C33.1946 21.9384 33.0013 21.684 32.8692 21.3767C32.7372 21.0694 32.6712 20.7596 32.6712 20.4475C32.6712 20.1354 32.7372 19.8257 32.8692 19.5184C33.0013 19.2111 33.1946 18.959 33.4493 18.7622C33.7039 18.5605 34.0058 18.4597 34.3547 18.4597C34.7084 18.4597 35.0267 18.5485 35.3097 18.7262C35.5927 18.9038 35.8143 19.1463 35.9746 19.4536C36.1397 19.7561 36.2222 20.0874 36.2222 20.4475C36.2222 20.8077 36.1397 21.1414 35.9746 21.4487C35.8143 21.7512 35.5927 21.9913 35.3097 22.1689C35.0267 22.3466 34.7084 22.4354 34.3547 22.4354ZM33.138 22.3418C33.138 22.3466 33.1357 22.3514 33.1309 22.3562C33.1309 22.3562 33.1286 22.3562 33.1239 22.3562H32.3953C32.3906 22.3562 32.3858 22.3562 32.3811 22.3562C32.3811 22.3514 32.3811 22.3466 32.3811 22.3418V16.9111C32.3811 16.9063 32.3811 16.9039 32.3811 16.9039C32.3858 16.8991 32.3906 16.8967 32.3953 16.8967H33.1239C33.1286 16.8967 33.1309 16.8991 33.1309 16.9039C33.1357 16.9039 33.138 16.9063 33.138 16.9111V19.8353L32.9753 20.4691L33.138 21.0886V22.3418Z" fill="#670099"></path>
  <path d="M27.2234 21.7368C27.464 21.7368 27.6762 21.684 27.8601 21.5783C28.044 21.4679 28.1855 21.3142 28.2845 21.1174C28.3883 20.9205 28.4402 20.6972 28.4402 20.4475C28.4402 20.1979 28.3883 19.9746 28.2845 19.7777C28.1855 19.576 28.044 19.4224 27.8601 19.3168C27.6762 19.2063 27.464 19.1511 27.2234 19.1511C27.0207 19.1511 26.832 19.2063 26.6575 19.3168C26.4878 19.4272 26.3534 19.5808 26.2543 19.7777C26.16 19.9746 26.1129 20.1979 26.1129 20.4475C26.1129 20.6972 26.16 20.9205 26.2543 21.1174C26.3534 21.3094 26.4878 21.4607 26.6575 21.5711C26.8273 21.6816 27.0159 21.7368 27.2234 21.7368ZM27.1669 22.4354C26.8132 22.4354 26.4948 22.3466 26.2119 22.1689C25.9289 21.9913 25.7049 21.7512 25.5399 21.4487C25.3795 21.1414 25.2994 20.8077 25.2994 20.4475C25.2994 20.0874 25.3795 19.7561 25.5399 19.4536C25.7049 19.1463 25.9289 18.9038 26.2119 18.7262C26.4948 18.5485 26.8132 18.4597 27.1669 18.4597C27.5158 18.4597 27.8177 18.5605 28.0723 18.7622C28.327 18.959 28.5203 19.2111 28.6524 19.5184C28.7844 19.8257 28.8504 20.1354 28.8504 20.4475C28.8504 20.7596 28.7844 21.0694 28.6524 21.3767C28.5203 21.684 28.327 21.9384 28.0723 22.1401C27.8177 22.337 27.5158 22.4354 27.1669 22.4354ZM29.1405 22.3418C29.1405 22.3466 29.1381 22.3514 29.1334 22.3562C29.1334 22.3562 29.131 22.3562 29.1263 22.3562H28.3977C28.393 22.3562 28.3883 22.3562 28.3836 22.3562C28.3836 22.3514 28.3836 22.3466 28.3836 22.3418V21.0886L28.5463 20.4691L28.3836 19.8353V16.9111C28.3836 16.9063 28.3836 16.9039 28.3836 16.9039C28.3883 16.8991 28.393 16.8967 28.3977 16.8967H29.1263C29.131 16.8967 29.1334 16.8991 29.1334 16.9039C29.1381 16.9039 29.1405 16.9063 29.1405 16.9111V22.3418Z" fill="#670099"></path>
  <path d="M24.6617 20.6351C24.6617 20.6399 24.6594 20.6447 24.6547 20.6495C24.6547 20.6495 24.6523 20.6495 24.6476 20.6495H23.9614C23.9614 20.3086 23.9095 20.0277 23.8058 19.8068C23.7068 19.5811 23.57 19.4179 23.3955 19.3171C23.2257 19.2114 23.0277 19.1586 22.8013 19.1586C22.5372 19.1586 22.3132 19.209 22.1293 19.3099C21.9454 19.4107 21.8039 19.5571 21.7048 19.7492C21.6105 19.9413 21.5634 20.1717 21.5634 20.4406C21.5634 20.7143 21.6105 20.9496 21.7048 21.1465C21.8039 21.3385 21.9501 21.485 22.1434 21.5858C22.3368 21.6867 22.5749 21.7371 22.8579 21.7371C23.0748 21.7371 23.2752 21.6795 23.4592 21.5642C23.6478 21.449 23.8081 21.2881 23.9402 21.0817C23.9449 21.0769 23.9473 21.0745 23.9473 21.0745C23.952 21.0745 23.9567 21.0745 23.9614 21.0745L24.5415 21.4706C24.5462 21.4754 24.5485 21.4802 24.5485 21.485C24.5533 21.485 24.5533 21.4874 24.5485 21.4922C24.3599 21.7851 24.1123 22.0156 23.8058 22.1836C23.504 22.3517 23.188 22.4357 22.8579 22.4357C22.4523 22.4357 22.0963 22.3493 21.7897 22.1764C21.4879 22.0036 21.2521 21.7659 21.0823 21.4634C20.9173 21.1609 20.8348 20.82 20.8348 20.4406C20.8348 20.0613 20.9173 19.7228 21.0823 19.4251C21.2521 19.1226 21.4856 18.8873 21.7827 18.7192C22.0845 18.5464 22.424 18.46 22.8013 18.46C23.1361 18.46 23.445 18.5416 23.728 18.7048C24.0156 18.8681 24.2444 19.113 24.4141 19.4395C24.5886 19.766 24.6712 20.1645 24.6617 20.6351ZM24.2939 20.6495H21.3229V20.0157H24.2939V20.6495Z" fill="#670099"></path>
  <path d="M19.2745 22.3421C19.2745 22.3469 19.2721 22.3517 19.2674 22.3565C19.2674 22.3565 19.2651 22.3565 19.2604 22.3565H18.5317C18.527 22.3565 18.5223 22.3565 18.5176 22.3565C18.5176 22.3517 18.5176 22.3469 18.5176 22.3421V18.5536C18.5176 18.5488 18.5176 18.5464 18.5176 18.5464C18.5223 18.5416 18.527 18.5392 18.5317 18.5392H19.2604C19.2651 18.5392 19.2674 18.5416 19.2674 18.5464C19.2721 18.5464 19.2745 18.5488 19.2745 18.5536V22.3421ZM18.5176 21.0096C18.5176 20.5535 18.6001 20.1309 18.7652 19.742C18.9302 19.3483 19.1613 19.0362 19.4584 18.8057C19.7602 18.5752 20.0998 18.46 20.4771 18.46C20.4818 18.46 20.4841 18.4624 20.4841 18.4672C20.4888 18.4672 20.4912 18.4696 20.4912 18.4744V19.1946C20.4912 19.1994 20.4888 19.2042 20.4841 19.209C20.4841 19.209 20.4818 19.209 20.4771 19.209C20.213 19.209 19.9913 19.2546 19.8121 19.3459C19.6376 19.4371 19.5032 19.5787 19.4089 19.7708C19.3193 19.9581 19.2745 20.1982 19.2745 20.4911L18.5176 21.0096Z" fill="#670099"></path>
  <path d="M17.7615 20.6351C17.7615 20.6399 17.7592 20.6447 17.7545 20.6495C17.7545 20.6495 17.7521 20.6495 17.7474 20.6495H17.0612C17.0612 20.3086 17.0093 20.0277 16.9056 19.8068C16.8066 19.5811 16.6698 19.4179 16.4953 19.3171C16.3255 19.2114 16.1275 19.1586 15.9011 19.1586C15.637 19.1586 15.413 19.209 15.2291 19.3099C15.0452 19.4107 14.9037 19.5571 14.8047 19.7492C14.7103 19.9413 14.6632 20.1717 14.6632 20.4406C14.6632 20.7143 14.7103 20.9496 14.8047 21.1465C14.9037 21.3385 15.0499 21.485 15.2432 21.5858C15.4366 21.6867 15.6747 21.7371 15.9577 21.7371C16.1746 21.7371 16.3751 21.6795 16.559 21.5642C16.7476 21.449 16.908 21.2881 17.04 21.0817C17.0447 21.0769 17.0471 21.0745 17.0471 21.0745C17.0518 21.0745 17.0565 21.0745 17.0612 21.0745L17.6413 21.4706C17.646 21.4754 17.6484 21.4802 17.6484 21.485C17.6531 21.485 17.6531 21.4874 17.6484 21.4922C17.4597 21.7851 17.2121 22.0156 16.9056 22.1836C16.6038 22.3517 16.2878 22.4357 15.9577 22.4357C15.5521 22.4357 15.1961 22.3493 14.8895 22.1764C14.5877 22.0036 14.3519 21.7659 14.1822 21.4634C14.0171 21.1609 13.9346 20.82 13.9346 20.4406C13.9346 20.0613 14.0171 19.7228 14.1822 19.4251C14.3519 19.1226 14.5854 18.8873 14.8825 18.7192C15.1843 18.5464 15.5238 18.46 15.9011 18.46C16.2359 18.46 16.5448 18.5416 16.8278 18.7048C17.1155 18.8681 17.3442 19.113 17.514 19.4395C17.6884 19.766 17.771 20.1645 17.7615 20.6351ZM17.3937 20.6495H14.4227V20.0157H17.3937V20.6495Z" fill="#670099"></path>
  <path d="M12.9197 18.5549C12.9197 18.5501 12.9221 18.5477 12.9268 18.5477C12.9315 18.5429 12.9362 18.5405 12.9409 18.5405H13.7261C13.7308 18.5405 13.7332 18.5429 13.7332 18.5477C13.7332 18.5477 13.7332 18.5501 13.7332 18.5549L12.2689 22.3434C12.2689 22.353 12.2618 22.3578 12.2477 22.3578H11.6535C11.6488 22.3578 11.644 22.3578 11.6393 22.3578C11.6346 22.353 11.6323 22.3482 11.6323 22.3434L10.8117 19.7145L9.99112 22.3434C9.99112 22.3482 9.98876 22.353 9.98404 22.3578C9.97933 22.3578 9.97461 22.3578 9.9699 22.3578H9.36862C9.35447 22.3578 9.34739 22.353 9.34739 22.3434L7.8831 18.5549C7.8831 18.5501 7.8831 18.5477 7.8831 18.5477C7.8831 18.5429 7.88546 18.5405 7.89018 18.5405H8.67538C8.68009 18.5405 8.68481 18.5429 8.68952 18.5477C8.69424 18.5477 8.6966 18.5501 8.6966 18.5549L9.68694 21.1982L10.5429 18.5549C10.5429 18.5453 10.55 18.5405 10.5641 18.5405H11.0522C11.0663 18.5405 11.0734 18.5453 11.0734 18.5549L11.9364 21.1982L12.9197 18.5549Z" fill="#670099"></path>
  <path d="M5.73407 21.7227C5.96515 21.7227 6.1703 21.6699 6.3495 21.5642C6.52871 21.4538 6.66547 21.3025 6.75979 21.1105C6.85882 20.9136 6.90834 20.6927 6.90834 20.4478C6.90834 20.1982 6.85882 19.9773 6.75979 19.7852C6.66547 19.5931 6.52871 19.4443 6.3495 19.3387C6.1703 19.2282 5.96515 19.173 5.73407 19.173C5.50299 19.173 5.29785 19.2282 5.11865 19.3387C4.93944 19.4443 4.80032 19.5931 4.70129 19.7852C4.60697 19.9773 4.55981 20.1982 4.55981 20.4478C4.55981 20.6927 4.60933 20.9136 4.70836 21.1105C4.8074 21.3025 4.94416 21.4538 5.11865 21.5642C5.29785 21.6699 5.50299 21.7227 5.73407 21.7227ZM5.73407 22.4357C5.38038 22.4357 5.05262 22.3469 4.75081 22.1692C4.4537 21.9868 4.21791 21.7443 4.04342 21.4418C3.86893 21.1345 3.78168 20.8032 3.78168 20.4478C3.78168 20.0877 3.86893 19.7564 4.04342 19.4539C4.22262 19.1466 4.46078 18.9041 4.75788 18.7265C5.0597 18.5488 5.3851 18.46 5.73407 18.46C6.08777 18.46 6.41317 18.5488 6.71027 18.7265C7.01209 18.9041 7.25024 19.1466 7.42473 19.4539C7.59922 19.7564 7.68646 20.0877 7.68646 20.4478C7.68646 20.8032 7.59922 21.1345 7.42473 21.4418C7.25024 21.7443 7.01209 21.9868 6.71027 22.1692C6.41317 22.3469 6.08777 22.4357 5.73407 22.4357Z" fill="#670099"></path>
  <path d="M0.792274 22.3398C0.792274 22.3446 0.789916 22.3494 0.7852 22.3542C0.7852 22.3542 0.782842 22.3542 0.778126 22.3542H0.0141477C0.00943182 22.3542 0.00471589 22.3542 0 22.3542C0 22.3494 0 22.3446 0 22.3398V17.0316C0 17.0268 0 17.0244 0 17.0244C0.00471589 17.0196 0.00943182 17.0172 0.0141477 17.0172H0.792274V22.3398ZM0.403211 19.4228H1.71895C1.89816 19.4228 2.05378 19.3868 2.18583 19.3148C2.31787 19.2428 2.41926 19.1443 2.49 19.0195C2.56074 18.8947 2.59611 18.7554 2.59611 18.6018C2.59611 18.4529 2.56074 18.3185 2.49 18.1984C2.41926 18.0736 2.31787 17.9775 2.18583 17.9103C2.05378 17.8383 1.89816 17.8023 1.71895 17.8023H0.530541V17.0172H1.71895C2.0302 17.0172 2.31316 17.094 2.56782 17.2477C2.82719 17.3965 3.02762 17.5934 3.1691 17.8383C3.31529 18.0832 3.38839 18.3377 3.38839 18.6018C3.38839 18.8658 3.31529 19.1227 3.1691 19.3724C3.02762 19.6173 2.82719 19.819 2.56782 19.9774C2.31316 20.1311 2.0302 20.2079 1.71895 20.2079H0.403211V19.4228Z" fill="#670099"></path>
</svg>